<svg width="32" height="32" viewBox="0 0 32 32" fill="none" xmlns="http://www.w3.org/2000/svg">
<path fill-rule="evenodd" clip-rule="evenodd" d="M22.6284 28.4346C22.5457 28.743 22.5044 28.8973 22.4435 28.9911C22.2465 29.2943 21.8524 29.3999 21.5303 29.2358C21.4306 29.185 21.3177 29.0721 21.0919 28.8463L14.0911 21.8455C13.9399 21.6943 13.8644 21.6187 13.8055 21.5377C13.6207 21.2832 13.5367 20.9693 13.5698 20.6565C13.5804 20.5569 13.6081 20.4537 13.6637 20.2472L14.2736 17.9796C14.2923 17.9101 14.3016 17.8754 14.3003 17.8502C14.2961 17.7689 14.2311 17.7039 14.1498 17.6997C14.1246 17.6984 14.0899 17.7077 14.0204 17.7264L11.7527 18.3363C11.5463 18.3919 11.4431 18.4196 11.3435 18.4302C11.0307 18.4633 10.7168 18.3793 10.4623 18.1945C10.3813 18.1356 10.3057 18.0601 10.1545 17.9089L3.15368 10.9081C2.9279 10.6823 2.81501 10.5694 2.76421 10.4697C2.60007 10.1475 2.70567 9.75345 3.0089 9.55653C3.10273 9.49559 3.25694 9.45427 3.56537 9.37163L28.0695 2.80579C28.3779 2.72315 28.5321 2.68182 28.6438 2.68768C29.0049 2.7066 29.2934 2.9951 29.3123 3.35616C29.3182 3.4679 29.2768 3.62211 29.1942 3.93053L22.6284 28.4346ZM8.17871 11.0608C8.04009 11.0981 7.97078 11.1167 7.92859 11.1442C7.79228 11.2328 7.74487 11.4101 7.81872 11.555C7.84158 11.5998 7.89233 11.6506 7.99383 11.7521L11.4215 15.1798C11.4782 15.2365 11.5066 15.2648 11.5369 15.2869C11.6324 15.3562 11.7501 15.3877 11.8674 15.3752C11.9047 15.3713 11.9435 15.3609 12.0209 15.3401L17.674 13.8195C17.813 13.7822 17.8826 13.7635 17.9329 13.7661C18.0955 13.7745 18.2255 13.9045 18.2339 14.0671C18.2365 14.1174 18.2178 14.1869 18.1804 14.326L16.6599 19.9791C16.6391 20.0565 16.6287 20.0952 16.6247 20.1326C16.6123 20.2499 16.6438 20.3676 16.7131 20.463C16.7352 20.4934 16.7635 20.5218 16.8202 20.5785L20.2479 24.0062C20.3494 24.1077 20.4002 24.1584 20.445 24.1813C20.5899 24.2551 20.7671 24.2077 20.8558 24.0714C20.8833 24.0292 20.9019 23.9599 20.9392 23.8213L25.4478 7.05858C25.4852 6.91956 25.5039 6.85005 25.5013 6.79972C25.4929 6.63708 25.3629 6.5071 25.2003 6.49868C25.1499 6.49608 25.0804 6.51478 24.9414 6.55217L8.17871 11.0608Z" fill="white"/>
<mask id="mask0_615_161" style="mask-type:alpha" maskUnits="userSpaceOnUse" x="2" y="2" width="28" height="28">
<path fill-rule="evenodd" clip-rule="evenodd" d="M22.6284 28.4346C22.5457 28.743 22.5044 28.8973 22.4435 28.9911C22.2465 29.2943 21.8524 29.3999 21.5303 29.2358C21.4306 29.185 21.3177 29.0721 21.0919 28.8463L14.0911 21.8455C13.9399 21.6943 13.8644 21.6187 13.8055 21.5377C13.6207 21.2832 13.5367 20.9693 13.5698 20.6565C13.5804 20.5569 13.6081 20.4537 13.6637 20.2472L14.2736 17.9796C14.2923 17.9101 14.3016 17.8754 14.3003 17.8502C14.2961 17.7689 14.2311 17.7039 14.1498 17.6997C14.1246 17.6984 14.0899 17.7077 14.0204 17.7264L11.7527 18.3363C11.5463 18.3919 11.4431 18.4196 11.3435 18.4302C11.0307 18.4633 10.7168 18.3793 10.4623 18.1945C10.3813 18.1356 10.3057 18.0601 10.1545 17.9089L3.15368 10.9081C2.9279 10.6823 2.81501 10.5694 2.76421 10.4697C2.60007 10.1475 2.70567 9.75345 3.0089 9.55653C3.10273 9.49559 3.25694 9.45427 3.56537 9.37163L28.0695 2.80579C28.3779 2.72315 28.5321 2.68182 28.6438 2.68768C29.0049 2.7066 29.2934 2.9951 29.3123 3.35616C29.3182 3.4679 29.2768 3.62211 29.1942 3.93053L22.6284 28.4346ZM8.17871 11.0608C8.04009 11.0981 7.97078 11.1167 7.92859 11.1442C7.79228 11.2328 7.74487 11.4101 7.81872 11.555C7.84158 11.5998 7.89233 11.6506 7.99383 11.7521L11.4215 15.1798C11.4782 15.2365 11.5066 15.2648 11.5369 15.2869C11.6324 15.3562 11.7501 15.3877 11.8674 15.3752C11.9047 15.3713 11.9435 15.3609 12.0209 15.3401L17.674 13.8195C17.813 13.7822 17.8826 13.7635 17.9329 13.7661C18.0955 13.7745 18.2255 13.9045 18.2339 14.0671C18.2365 14.1174 18.2178 14.1869 18.1804 14.326L16.6599 19.9791C16.6391 20.0565 16.6287 20.0952 16.6247 20.1326C16.6123 20.2499 16.6438 20.3676 16.7131 20.463C16.7352 20.4934 16.7635 20.5218 16.8202 20.5785L20.2479 24.0062C20.3494 24.1077 20.4002 24.1584 20.445 24.1813C20.5899 24.2551 20.7671 24.2077 20.8558 24.0714C20.8833 24.0292 20.9019 23.9599 20.9392 23.8213L25.4478 7.05858C25.4852 6.91956 25.5039 6.85005 25.5013 6.79972C25.4929 6.63708 25.3629 6.5071 25.2003 6.49868C25.1499 6.49608 25.0804 6.51478 24.9414 6.55217L8.17871 11.0608Z" fill="#075BF9"/>
</mask>
<g mask="url(#mask0_615_161)">
<circle cx="29.0939" cy="2.9178" r="20.6093" fill="white"/>
</g>
</svg>
