<svg width="309" height="69" viewBox="0 0 309 69" fill="none" xmlns="http://www.w3.org/2000/svg">
<path fill-rule="evenodd" clip-rule="evenodd" d="M51.3487 66.633C51.1358 67.4312 51.0294 67.8303 50.8725 68.0732C50.3655 68.8579 49.3507 69.1312 48.5211 68.7064C48.2644 68.5749 47.9737 68.2828 47.3923 67.6985L29.3652 49.5807C28.976 49.1895 28.7813 48.9939 28.6298 48.7842C28.1538 48.1256 27.9376 47.3131 28.0229 46.5037C28.0501 46.2459 28.1216 45.9788 28.2645 45.4446L29.8351 39.5761C29.8832 39.3962 29.9073 39.3063 29.9039 39.2412C29.8931 39.0307 29.7257 38.8625 29.5163 38.8516C29.4515 38.8482 29.362 38.8724 29.1831 38.9208L23.3439 40.4992C22.8124 40.6429 22.5466 40.7148 22.2901 40.7421C21.4847 40.8278 20.6763 40.6105 20.0211 40.1322C19.8124 39.9798 19.6178 39.7843 19.2285 39.3931L1.20136 21.2753C0.619975 20.691 0.329282 20.3988 0.198484 20.1408C-0.22419 19.3071 0.0477224 18.2872 0.82854 17.7776C1.07017 17.6199 1.46726 17.513 2.26145 17.2991L65.3595 0.307067C66.1537 0.0931957 66.5508 -0.0137399 66.8385 0.00141439C67.7682 0.0503853 68.5111 0.796996 68.5598 1.73141C68.5749 2.02057 68.4685 2.41966 68.2557 3.21784L51.3487 66.633ZM14.1408 21.6705C13.7839 21.767 13.6054 21.8153 13.4968 21.8863C13.1457 22.1158 13.0237 22.5745 13.2138 22.9495C13.2727 23.0655 13.4034 23.1969 13.6648 23.4596L22.4911 32.3302C22.637 32.4769 22.71 32.5503 22.7883 32.6074C23.034 32.7868 23.3371 32.8683 23.6392 32.8361C23.7354 32.8259 23.835 32.7989 24.0343 32.7451L38.5913 28.8101C38.9492 28.7133 39.1282 28.6649 39.2578 28.6716C39.6766 28.6934 40.0113 29.0298 40.033 29.4507C40.0397 29.581 39.9915 29.7609 39.8953 30.1206L35.9799 44.7507C35.9263 44.951 35.8995 45.0512 35.8893 45.1479C35.8573 45.4514 35.9384 45.7561 36.1169 46.003C36.1737 46.0817 36.2467 46.155 36.3927 46.3017L45.219 55.1724C45.4804 55.4351 45.6111 55.5665 45.7265 55.6256C46.0996 55.8167 46.556 55.694 46.7844 55.3413C46.8551 55.2321 46.9031 55.0527 46.9991 54.694L58.6088 11.3131C58.705 10.9533 58.7532 10.7734 58.7465 10.6432C58.7248 10.2222 58.3901 9.88586 57.9713 9.86408C57.8417 9.85734 57.6627 9.90572 57.3048 10.0025L14.1408 21.6705Z" fill="#094AD0"/>
<mask id="mask0_608_84" style="mask-type:alpha" maskUnits="userSpaceOnUse" x="0" y="0" width="69" height="69">
<path fill-rule="evenodd" clip-rule="evenodd" d="M51.3487 66.633C51.1358 67.4312 51.0294 67.8303 50.8725 68.0732C50.3655 68.8579 49.3507 69.1312 48.5211 68.7064C48.2644 68.5749 47.9737 68.2828 47.3923 67.6985L29.3652 49.5807C28.976 49.1895 28.7813 48.9939 28.6298 48.7842C28.1538 48.1256 27.9376 47.3131 28.0229 46.5037C28.0501 46.2459 28.1216 45.9788 28.2645 45.4446L29.8351 39.5761C29.8832 39.3962 29.9073 39.3063 29.9039 39.2412C29.8931 39.0307 29.7257 38.8625 29.5163 38.8516C29.4515 38.8482 29.362 38.8724 29.1831 38.9208L23.3439 40.4992C22.8124 40.6429 22.5466 40.7148 22.2901 40.7421C21.4847 40.8278 20.6763 40.6105 20.0211 40.1322C19.8124 39.9798 19.6178 39.7843 19.2285 39.3931L1.20136 21.2753C0.619975 20.691 0.329282 20.3988 0.198484 20.1408C-0.22419 19.3071 0.0477224 18.2872 0.82854 17.7776C1.07017 17.6199 1.46726 17.513 2.26145 17.2991L65.3595 0.307067C66.1537 0.0931957 66.5508 -0.0137399 66.8385 0.00141439C67.7682 0.0503853 68.5111 0.796996 68.5598 1.73141C68.5749 2.02057 68.4685 2.41966 68.2557 3.21784L51.3487 66.633ZM14.1408 21.6705C13.7839 21.767 13.6054 21.8153 13.4968 21.8863C13.1457 22.1158 13.0237 22.5745 13.2138 22.9495C13.2727 23.0655 13.4034 23.1969 13.6648 23.4596L22.4911 32.3302C22.637 32.4769 22.71 32.5503 22.7883 32.6074C23.034 32.7868 23.3371 32.8683 23.6392 32.8361C23.7354 32.8259 23.835 32.7989 24.0343 32.7451L38.5913 28.8101C38.9492 28.7133 39.1282 28.6649 39.2578 28.6716C39.6766 28.6934 40.0113 29.0298 40.033 29.4507C40.0397 29.581 39.9915 29.7609 39.8953 30.1206L35.9799 44.7507C35.9263 44.951 35.8995 45.0512 35.8893 45.1479C35.8573 45.4514 35.9384 45.7561 36.1169 46.003C36.1737 46.0817 36.2467 46.155 36.3927 46.3017L45.219 55.1724C45.4804 55.4351 45.6111 55.5665 45.7265 55.6256C46.0996 55.8167 46.556 55.694 46.7844 55.3413C46.8551 55.2321 46.9031 55.0527 46.9991 54.694L58.6088 11.3131C58.705 10.9533 58.7532 10.7734 58.7465 10.6432C58.7248 10.2222 58.3901 9.88586 57.9713 9.86408C57.8417 9.85734 57.6627 9.90572 57.3048 10.0025L14.1408 21.6705Z" fill="#075BF9"/>
</mask>
<g mask="url(#mask0_608_84)">
<ellipse cx="67.9976" cy="0.596939" rx="53.0689" ry="53.3356" fill="url(#paint0_radial_608_84)"/>
</g>
<path d="M175.839 61.6915C173.969 66.7363 171.171 69 164.931 69H159.718V63.4375H164.18C168.104 63.4375 168.432 62.2087 169.551 59.0394L169.926 57.746L156.379 22.7199H164.345L169.612 37.6955C169.619 37.7172 171.688 44.0549 172.861 48.4395C172.974 48.862 173.606 48.8648 173.722 48.4432C174.99 43.853 177.14 37.7102 177.145 37.6955L182.557 22.645H190.276L175.839 61.6915Z" fill="#04070B"/>
<path d="M102.072 10.137C111.594 10.137 118.812 14.4058 119.499 23.9136H111.645C111.084 18.9333 107.536 16.0874 102.059 16.0874C96.1467 16.0874 92.4733 18.7393 92.4733 23.008C92.4733 26.7594 95.6495 28.506 100.876 29.6055L105.729 30.6401C114.632 32.5805 120.42 35.0384 120.42 44.6108C120.42 53.1484 112.399 58.5168 102.246 58.5169C90.9818 58.5169 84.2574 53.86 84.0103 43.3821H91.8638C92.1141 49.7852 96.0986 52.5665 102.258 52.5665C108.296 52.5665 112.402 49.7852 112.466 45.387C112.527 40.4715 109.104 39.2426 103.192 38.0138L98.338 36.9788C89.676 35.1031 84.6457 31.5457 84.6457 23.8489C84.6457 15.57 92.3451 10.137 102.072 10.137Z" fill="#04070B"/>
<path fill-rule="evenodd" clip-rule="evenodd" d="M272.4 22.0394C282.73 22.0394 289.018 28.7662 289.018 40.085C289.018 51.4037 282.73 58.1949 272.4 58.1949C262.006 58.1949 255.657 51.4037 255.657 40.085C255.657 28.7662 262.006 22.0394 272.4 22.0394ZM272.4 27.6666C266.365 27.6666 263.125 32.3882 263.125 40.085C263.125 47.7817 266.362 52.5677 272.4 52.5677C278.438 52.5677 281.546 47.7816 281.546 40.085C281.546 32.3882 278.434 27.6666 272.4 27.6666Z" fill="#04070B"/>
<path d="M132.464 37.4908C132.464 37.8738 132.936 38.0526 133.19 37.7667C138.148 32.1764 141.438 28.5104 146.564 22.726H155.339L140.427 39.0292C140.287 39.1826 140.281 39.4166 140.413 39.5771L155.306 57.6658H146.095L133.204 41.273C132.96 40.963 132.464 41.136 132.464 41.5311V57.6658H124.995V11.485H132.464V37.4908Z" fill="#04070B"/>
<path d="M237.968 57.6605H230.499V22.8184H237.968V57.6605Z" fill="#04070B"/>
<path fill-rule="evenodd" clip-rule="evenodd" d="M210.568 11.2408C221.087 11.2409 226.438 17.5794 226.438 25.7288C226.438 33.8137 221.087 40.2168 210.568 40.2169H200.237V57.6483H192.458V11.2408H210.568ZM200.237 33.6845H210.943C215.611 33.6844 218.597 30.1916 218.597 25.7288C218.597 21.2014 215.617 17.7733 210.943 17.7732H200.237V33.6845Z" fill="#04070B"/>
<path d="M251.096 57.6434H243.633V11.2408H251.096V57.6434Z" fill="#04070B"/>
<path d="M302.346 22.8119H308.945L308.958 28.5038H302.359V48.9202C302.359 50.9898 303.386 51.96 305.266 51.9601H309V57.6267H303.158C297.617 57.6267 294.942 55.8803 294.942 49.6711V28.5038H289.526V22.8119H294.942V15.9156L302.346 13.9217V22.8119Z" fill="#04070B"/>
<path d="M238.157 18.2909H230.313V11.2408H238.157V18.2909Z" fill="#04070B"/>
<defs>
<radialGradient id="paint0_radial_608_84" cx="0" cy="0" r="1" gradientUnits="userSpaceOnUse" gradientTransform="translate(67.9976 0.596939) rotate(90) scale(53.3356 53.0689)">
<stop offset="0.253189" stop-color="#6293F8"/>
<stop offset="1" stop-color="#6293F8" stop-opacity="0"/>
</radialGradient>
</defs>
</svg>
