<svg width="263" height="59" viewBox="0 0 263 59" fill="none" xmlns="http://www.w3.org/2000/svg">
<path fill-rule="evenodd" clip-rule="evenodd" d="M43.6374 56.3281C43.4565 57.003 43.3661 57.3405 43.2328 57.5458C42.8018 58.2094 41.9394 58.4404 41.2345 58.0812C41.0163 57.9701 40.7693 57.723 40.2752 57.229L24.9553 41.909C24.6245 41.5783 24.4591 41.4129 24.3303 41.2355C23.9258 40.6786 23.7421 39.9916 23.8146 39.3072C23.8377 39.0892 23.8984 38.8634 24.0199 38.4116L25.3546 33.4494C25.3955 33.2973 25.416 33.2213 25.4131 33.1662C25.4039 32.9882 25.2617 32.846 25.0837 32.8368C25.0287 32.834 24.9526 32.8544 24.8005 32.8953L19.8383 34.23C19.3865 34.3515 19.1607 34.4122 18.9427 34.4353C18.2583 34.5078 17.5713 34.3241 17.0144 33.9196C16.837 33.7908 16.6717 33.6254 16.3409 33.2947L1.02095 17.9747C0.526871 17.4806 0.279832 17.2336 0.168677 17.0154C-0.190522 16.3105 0.0405557 15.4481 0.704114 15.0172C0.909456 14.8838 1.24692 14.7934 1.92184 14.6125L55.5441 0.244511C56.2191 0.0636672 56.5565 -0.0267548 56.801 -0.0139407C57.5911 0.0274678 58.2225 0.658783 58.2639 1.4489C58.2767 1.69341 58.1863 2.03087 58.0054 2.70579L43.6374 56.3281ZM12.0172 18.3089C11.7139 18.3905 11.5622 18.4313 11.4699 18.4914C11.1716 18.6854 11.0678 19.0733 11.2295 19.3904C11.2795 19.4885 11.3905 19.5996 11.6126 19.8217L19.1135 27.3225C19.2375 27.4465 19.2995 27.5086 19.366 27.5569C19.5749 27.7085 19.8325 27.7774 20.0892 27.7503C20.1709 27.7416 20.2556 27.7188 20.425 27.6733L32.7958 24.3459C33.1 24.2641 33.2521 24.2232 33.3623 24.2289C33.7182 24.2473 34.0026 24.5317 34.021 24.8876C34.0267 24.9978 33.9858 25.1499 33.904 25.4541L30.5767 37.8249C30.5311 37.9943 30.5083 38.079 30.4997 38.1608C30.4725 38.4174 30.5414 38.675 30.6931 38.8839C30.7414 38.9504 30.8034 39.0124 30.9274 39.1364L38.4282 46.6373C38.6504 46.8594 38.7614 46.9705 38.8596 47.0205C39.1766 47.1821 39.5645 47.0783 39.7586 46.78C39.8186 46.6877 39.8594 46.5361 39.941 46.2327L49.8072 9.5509C49.889 9.24669 49.9299 9.09458 49.9242 8.98444C49.9058 8.62853 49.6214 8.3441 49.2655 8.32568C49.1553 8.31998 49.0032 8.36089 48.699 8.44272L12.0172 18.3089Z" fill="#094AD0"/>
<mask id="mask0_5103_416" style="mask-type:alpha" maskUnits="userSpaceOnUse" x="0" y="-1" width="59" height="60">
<path fill-rule="evenodd" clip-rule="evenodd" d="M43.6374 56.3281C43.4565 57.003 43.3661 57.3405 43.2328 57.5458C42.8018 58.2094 41.9394 58.4404 41.2345 58.0812C41.0163 57.9701 40.7693 57.723 40.2752 57.229L24.9553 41.909C24.6245 41.5783 24.4591 41.4129 24.3303 41.2355C23.9258 40.6786 23.7421 39.9916 23.8146 39.3072C23.8377 39.0892 23.8984 38.8634 24.0199 38.4116L25.3546 33.4494C25.3955 33.2973 25.416 33.2213 25.4131 33.1662C25.4039 32.9882 25.2617 32.846 25.0837 32.8368C25.0287 32.834 24.9526 32.8544 24.8005 32.8953L19.8383 34.23C19.3865 34.3515 19.1607 34.4122 18.9427 34.4353C18.2583 34.5078 17.5713 34.3241 17.0144 33.9196C16.837 33.7908 16.6717 33.6254 16.3409 33.2947L1.02095 17.9747C0.526871 17.4806 0.279832 17.2336 0.168677 17.0154C-0.190522 16.3105 0.0405557 15.4481 0.704114 15.0172C0.909456 14.8838 1.24692 14.7934 1.92184 14.6125L55.5441 0.244511C56.2191 0.0636672 56.5565 -0.0267548 56.801 -0.0139407C57.5911 0.0274678 58.2225 0.658783 58.2639 1.4489C58.2767 1.69341 58.1863 2.03087 58.0054 2.70579L43.6374 56.3281ZM12.0172 18.3089C11.7139 18.3905 11.5622 18.4313 11.4699 18.4914C11.1716 18.6854 11.0678 19.0733 11.2295 19.3904C11.2795 19.4885 11.3905 19.5996 11.6126 19.8217L19.1135 27.3225C19.2375 27.4465 19.2995 27.5086 19.366 27.5569C19.5749 27.7085 19.8325 27.7774 20.0892 27.7503C20.1709 27.7416 20.2556 27.7188 20.425 27.6733L32.7958 24.3459C33.1 24.2641 33.2521 24.2232 33.3623 24.2289C33.7182 24.2473 34.0026 24.5317 34.021 24.8876C34.0267 24.9978 33.9858 25.1499 33.904 25.4541L30.5767 37.8249C30.5311 37.9943 30.5083 38.079 30.4997 38.1608C30.4725 38.4174 30.5414 38.675 30.6931 38.8839C30.7414 38.9504 30.8034 39.0124 30.9274 39.1364L38.4282 46.6373C38.6504 46.8594 38.7614 46.9705 38.8596 47.0205C39.1766 47.1821 39.5645 47.0783 39.7586 46.78C39.8186 46.6877 39.8594 46.5361 39.941 46.2327L49.8072 9.5509C49.889 9.24669 49.9299 9.09458 49.9242 8.98444C49.9058 8.62853 49.6214 8.3441 49.2655 8.32568C49.1553 8.31998 49.0032 8.36089 48.699 8.44272L12.0172 18.3089Z" fill="#075BF9"/>
</mask>
<g mask="url(#mask0_5103_416)">
<circle cx="57.786" cy="0.489635" r="45.0993" fill="url(#paint0_radial_5103_416)"/>
</g>
<path d="M149.469 52.2822C147.879 56.5481 145.502 58.4621 140.199 58.4621H135.769V53.7586H139.561C142.895 53.7586 143.174 52.7196 144.125 50.0397L144.444 48.946L132.931 19.3288H139.701L144.177 31.9918C144.183 32.0102 145.941 37.3692 146.938 41.0767C147.034 41.4339 147.571 41.4363 147.67 41.0798C148.747 37.1985 150.574 32.0043 150.578 31.9918L155.178 19.2655H161.737L149.469 52.2822Z" fill="#04070B"/>
<path d="M86.7799 8.68909C94.8716 8.68911 101.006 12.2987 101.589 20.3382H94.9152C94.4381 16.127 91.4227 13.7206 86.7688 13.7206C81.7442 13.7206 78.6225 15.9629 78.6225 19.5725C78.6225 22.7446 81.3217 24.2214 85.7629 25.1512L89.8879 26.026C97.4535 27.6667 102.372 29.7451 102.372 37.8393C102.372 45.0584 95.556 49.5978 86.9272 49.5979C77.355 49.5979 71.6404 45.6601 71.4304 36.8003H78.1045C78.3172 42.2146 81.7033 44.5664 86.9378 44.5664C92.0688 44.5664 95.5586 42.2146 95.6132 38.4956C95.6649 34.3391 92.756 33.3001 87.7314 32.261L83.6064 31.3858C76.2453 29.7997 71.9704 26.7917 71.9704 20.2835C71.9704 13.2831 78.5136 8.68909 86.7799 8.68909Z" fill="#04070B"/>
<path fill-rule="evenodd" clip-rule="evenodd" d="M231.529 18.7534C240.307 18.7534 245.651 24.4415 245.651 34.0123C245.651 43.5831 240.307 49.3256 231.529 49.3256C222.695 49.3256 217.3 43.5831 217.3 34.0123C217.3 24.4414 222.695 18.7534 231.529 18.7534ZM231.529 23.5116C226.4 23.5116 223.647 27.5041 223.647 34.0123C223.647 40.5204 226.398 44.5674 231.529 44.5674C236.66 44.5674 239.301 40.5204 239.301 34.0123C239.301 27.5042 236.657 23.5117 231.529 23.5116Z" fill="#04070B"/>
<path d="M112.607 31.8187C112.607 32.1426 113.009 32.2938 113.224 32.0521C117.438 27.325 120.234 24.2252 124.59 19.334H132.047L119.375 33.1196C119.256 33.2493 119.251 33.4471 119.363 33.5828L132.019 48.8782H124.192L113.236 35.0169C113.029 34.7548 112.607 34.901 112.607 35.2351V48.8782H106.26V9.82891H112.607V31.8187Z" fill="#04070B"/>
<path d="M202.267 48.8738H195.92V19.4121H202.267V48.8738Z" fill="#04070B"/>
<path fill-rule="evenodd" clip-rule="evenodd" d="M178.982 9.62242C187.922 9.62248 192.469 14.9821 192.469 21.8731C192.469 28.7095 187.922 34.1238 178.982 34.1238H170.203V48.8634H163.592V9.62242H178.982ZM170.203 28.6002H179.301C183.268 28.6001 185.806 25.6467 185.806 21.8731C185.806 18.0448 183.273 15.1461 179.301 15.146H170.203V28.6002Z" fill="#04070B"/>
<path d="M213.424 48.8593H207.082V9.62242H213.424V48.8593Z" fill="#04070B"/>
<path d="M256.978 19.4066H262.586L262.596 24.2195H256.989V41.4831C256.989 43.2332 257.861 44.0536 259.459 44.0536H262.632V48.8452H257.668C252.959 48.8452 250.685 47.3684 250.685 42.1181V24.2195H246.083V19.4066H250.685V13.5753L256.978 11.8893V19.4066Z" fill="#04070B"/>
<path d="M202.428 15.5838H195.762V9.62242H202.428V15.5838Z" fill="#04070B"/>
<defs>
<radialGradient id="paint0_radial_5103_416" cx="0" cy="0" r="1" gradientUnits="userSpaceOnUse" gradientTransform="translate(57.786 0.489635) rotate(90) scale(45.0993)">
<stop offset="0.253189" stop-color="#6293F8"/>
<stop offset="1" stop-color="#6293F8" stop-opacity="0"/>
</radialGradient>
</defs>
</svg>
